<svg xmlns="http://www.w3.org/2000/svg" width="960" height="540" viewBox="0 0 960 540">
  <defs>
    <linearGradient id="g" x1="0" y1="0" x2="1" y2="1">
      <stop offset="0" stop-color="#111827"/>
      <stop offset="1" stop-color="#9333ea"/>
    </linearGradient>
    <radialGradient id="r" cx=".72" cy=".20" r=".78">
      <stop offset="0" stop-color="#ffffff" stop-opacity=".18"/>
      <stop offset=".60" stop-color="#ffffff" stop-opacity=".04"/>
      <stop offset="1" stop-color="#000000" stop-opacity=".22"/>
    </radialGradient>
    <filter id="shadow" x="-20%" y="-20%" width="140%" height="140%">
      <feDropShadow dx="0" dy="22" stdDeviation="26" flood-color="#000000" flood-opacity=".28"/>
    </filter>
  </defs>
  <rect width="960" height="540" rx="58" fill="#111827"/>
  <rect width="960" height="540" rx="58" fill="url(#g)" opacity=".86"/>
  <rect width="960" height="540" rx="58" fill="url(#r)"/>
  <g opacity=".15" stroke="#fff" stroke-width="2">
    <path d="M80 115H880M80 210H880M80 305H880M80 400H880"/>
    <path d="M160 60V480M320 60V480M480 60V480M640 60V480M800 60V480"/>
  </g>
  <circle cx="760" cy="118" r="86" fill="#fff" opacity=".11"/>
  <circle cx="178" cy="408" r="122" fill="#fff" opacity=".08"/>
  <g filter="url(#shadow)">
    <rect x="84" y="78" width="792" height="384" rx="44" fill="#07111f" opacity=".72" stroke="#ffffff" stroke-opacity=".16"/>
    <text x="130" y="218" font-family="Arial, 'Noto Sans Thai', sans-serif" font-size="106" font-weight="800" fill="#ffffff">🎬</text>
    <text x="276" y="220" font-family="Arial, 'Noto Sans Thai', sans-serif" font-size="58" font-weight="900" fill="#ffffff">วิดีโอ</text>
    <text x="278" y="288" font-family="Arial, 'Noto Sans Thai', sans-serif" font-size="30" font-weight="700" fill="#dbeafe" opacity=".86">Hook Storyboard Voice Over</text>
    <rect x="278" y="326" width="392" height="18" rx="9" fill="#fff" opacity=".20"/>
    <rect x="278" y="360" width="270" height="18" rx="9" fill="#fff" opacity=".13"/>
  </g>
</svg>