<svg xmlns="http://www.w3.org/2000/svg" width="1600" height="900" viewBox="0 0 1600 900">
<defs>
<radialGradient id="g1" cx="80%" cy="20%" r="60%"><stop offset="0" stop-color="#ec4899" stop-opacity=".32"/><stop offset="1" stop-color="#050611" stop-opacity="0"/></radialGradient>
<radialGradient id="g2" cx="15%" cy="15%" r="45%"><stop offset="0" stop-color="#22d3ee" stop-opacity=".22"/><stop offset="1" stop-color="#050611" stop-opacity="0"/></radialGradient>
<linearGradient id="g3" x1="0" y1="0" x2="1" y2="1"><stop stop-color="#050611"/><stop offset=".55" stop-color="#140b2e"/><stop offset="1" stop-color="#310b2f"/></linearGradient>
</defs>
<rect width="1600" height="900" fill="url(#g3)"/><rect width="1600" height="900" fill="url(#g1)"/><rect width="1600" height="900" fill="url(#g2)"/>
<g opacity=".13" stroke="#fff" stroke-width="1">
<path d="M 0 0 V 900"/>
<path d="M 80 0 V 900"/>
<path d="M 160 0 V 900"/>
<path d="M 240 0 V 900"/>
<path d="M 320 0 V 900"/>
<path d="M 400 0 V 900"/>
<path d="M 480 0 V 900"/>
<path d="M 560 0 V 900"/>
<path d="M 640 0 V 900"/>
<path d="M 720 0 V 900"/>
<path d="M 800 0 V 900"/>
<path d="M 880 0 V 900"/>
<path d="M 960 0 V 900"/>
<path d="M 1040 0 V 900"/>
<path d="M 1120 0 V 900"/>
<path d="M 1200 0 V 900"/>
<path d="M 1280 0 V 900"/>
<path d="M 1360 0 V 900"/>
<path d="M 1440 0 V 900"/>
<path d="M 1520 0 V 900"/>
<path d="M 1600 0 V 900"/>
<path d="M 0 0 H 1600"/>
<path d="M 0 80 H 1600"/>
<path d="M 0 160 H 1600"/>
<path d="M 0 240 H 1600"/>
<path d="M 0 320 H 1600"/>
<path d="M 0 400 H 1600"/>
<path d="M 0 480 H 1600"/>
<path d="M 0 560 H 1600"/>
<path d="M 0 640 H 1600"/>
<path d="M 0 720 H 1600"/>
<path d="M 0 800 H 1600"/>
<path d="M 0 880 H 1600"/>
</g></svg>