<svg xmlns="http://www.w3.org/2000/svg" width="900" height="560" viewBox="0 0 900 560">
  <defs>
    <linearGradient id="g" x1="0" y1="0" x2="1" y2="1">
      <stop offset="0" stop-color="#22c55e"/>
      <stop offset="1" stop-color="#0ea5e9"/>
    </linearGradient>
    <radialGradient id="r" cx="72%" cy="26%" r="60%">
      <stop offset="0" stop-color="#ffffff" stop-opacity=".42"/>
      <stop offset=".42" stop-color="#ffffff" stop-opacity=".08"/>
      <stop offset="1" stop-color="#000000" stop-opacity="0"/>
    </radialGradient>
    <pattern id="grid" width="42" height="42" patternUnits="userSpaceOnUse">
      <path d="M 42 0 L 0 0 0 42" fill="none" stroke="#ffffff" stroke-opacity=".12" stroke-width="1"/>
    </pattern>
    <filter id="shadow" x="-20%" y="-20%" width="140%" height="140%">
      <feDropShadow dx="0" dy="22" stdDeviation="18" flood-color="#000" flood-opacity=".30"/>
    </filter>
  </defs>
  <rect width="900" height="560" rx="42" fill="#071020"/>
  <rect width="900" height="560" rx="42" fill="url(#g)" opacity=".92"/>
  <rect width="900" height="560" rx="42" fill="url(#grid)" opacity=".85"/>
  <circle cx="760" cy="105" r="118" fill="#fff" opacity=".16"/>
  <circle cx="675" cy="455" r="170" fill="#fff" opacity=".08"/>
  <circle cx="148" cy="110" r="78" fill="#fff" opacity=".10"/>
  <rect x="72" y="76" width="560" height="330" rx="34" fill="#ffffff" opacity=".16" filter="url(#shadow)"/>
  <rect x="98" y="102" width="505" height="42" rx="21" fill="#ffffff" opacity=".22"/>
  <rect x="98" y="170" width="410" height="24" rx="12" fill="#ffffff" opacity=".18"/>
  <rect x="98" y="210" width="455" height="24" rx="12" fill="#ffffff" opacity=".14"/>
  <rect x="98" y="250" width="330" height="24" rx="12" fill="#ffffff" opacity=".14"/>
  <rect x="98" y="314" width="190" height="52" rx="26" fill="#ffffff" opacity=".26"/>
  <circle cx="705" cy="285" r="92" fill="#050716" opacity=".30"/>
  <circle cx="705" cy="285" r="72" fill="#ffffff" opacity=".20"/>
  <text x="705" y="314" text-anchor="middle" font-size="78" font-family="Arial, sans-serif">🖼️</text>
  <rect x="54" y="430" width="792" height="90" rx="26" fill="#050716" opacity=".38"/>
  <text x="86" y="468" font-family="Arial, sans-serif" font-size="34" fill="#fff" font-weight="800">โปสเตอร์ประชาสัมพันธ์</text>
  <text x="86" y="503" font-family="Arial, sans-serif" font-size="21" fill="#dbeafe" font-weight="600">Prompt ภาพพร้อมใช้</text>
</svg>